<?xml version="1.0" encoding="UTF-8" standalone="no"?>
<!-- Created with Inkscape (http://www.inkscape.org/) -->

<svg
   xmlns:dc="http://purl.org/dc/elements/1.1/"
   xmlns:cc="http://creativecommons.org/ns#"
   xmlns:rdf="http://www.w3.org/1999/02/22-rdf-syntax-ns#"
   xmlns:svg="http://www.w3.org/2000/svg"
   xmlns="http://www.w3.org/2000/svg"
   xmlns:sodipodi="http://sodipodi.sourceforge.net/DTD/sodipodi-0.dtd"
   xmlns:inkscape="http://www.inkscape.org/namespaces/inkscape"
   width="200"
   height="200"
   id="svg3278"
   version="1.1"
   inkscape:version="0.48.4 r9939"
   sodipodi:docname="New document 2">
  <defs
     id="defs3280" />
  <sodipodi:namedview
     id="base"
     pagecolor="#ffffff"
     bordercolor="#666666"
     borderopacity="1.0"
     inkscape:pageopacity="0.0"
     inkscape:pageshadow="2"
     inkscape:zoom="1"
     inkscape:cx="64.053513"
     inkscape:cy="150.82873"
     inkscape:document-units="px"
     inkscape:current-layer="layer1"
     showgrid="false"
     inkscape:snap-bbox="true"
     fit-margin-top="0"
     fit-margin-left="0"
     fit-margin-right="0"
     fit-margin-bottom="0"
     inkscape:window-width="1855"
     inkscape:window-height="1056"
     inkscape:window-x="65"
     inkscape:window-y="24"
     inkscape:window-maximized="1">
    <inkscape:grid
       type="xygrid"
       id="grid3290"
       empspacing="5"
       visible="true"
       enabled="true"
       snapvisiblegridlinesonly="true"
       originx="-230px"
       originy="-670px" />
  </sodipodi:namedview>
  <metadata
     id="metadata3283">
    <rdf:RDF>
      <cc:Work
         rdf:about="">
        <dc:format>image/svg+xml</dc:format>
        <dc:type
           rdf:resource="http://purl.org/dc/dcmitype/StillImage" />
        <dc:title></dc:title>
      </cc:Work>
    </rdf:RDF>
  </metadata>
  <g
     inkscape:label="Layer 1"
     inkscape:groupmode="layer"
     id="layer1"
     transform="translate(-230,-182.36218)">
    <rect
       style="opacity:0.5;color:#000000;fill:#ff7e00;fill-opacity:0;fill-rule:nonzero;stroke:none;stroke-width:2;marker:none;visibility:visible;display:inline;overflow:visible;enable-background:accumulate"
       id="rect3288"
       width="200"
       height="200"
       x="230"
       y="182.36218" />
    <path
       style="fill:#ff7e00;stroke:none"
       d="m 301.25733,381.55124 c -68.4376,-44.08885 -34.91294,-94.52838 -17.96183,-113.2337 16.95112,-18.70531 30.07455,-35.62916 35.54266,-51.66228 5.4681,-16.03313 0,-34.29308 0,-34.29308 0,0 22.95526,6.66069 24.05964,40.08282 0.71038,21.49835 -4.89082,29.15459 -4.89082,29.15459 6.81294,-4.35926 20.32721,-18.55175 14.1866,-38.06189 0,0 21.52295,20.38922 20.23197,62.35104 -0.56666,18.41889 -12.87809,25.43055 -12.87809,25.43055 13.27665,-2.31322 23.76402,-9.29684 20.53344,-28.99346 0,0 63.42997,101.54312 -36.08948,109.55968 -99.51944,8.01657 -16.9511,-87.73682 -16.9511,-87.73682 0,0 -28.30186,46.90273 4.37447,48.99011 27.88732,1.78145 18.59155,-20.93214 18.59155,-20.93214 0,0 34.99584,22.26823 12.57664,39.63745 -14.87187,11.52193 -34.44905,6.68047 -34.44905,6.68047 0,0 16.91214,6.75437 37.7299,2.22682 21.29647,-4.63166 33.90223,-28.9487 6.01491,-44.09109 -27.88732,-15.1424 -39.37032,-48.54474 -39.37032,-48.54474 0,0 -78.90648,68.80831 -31.25109,103.43567 z"
       id="path3286"
       inkscape:connector-curvature="0"
       sodipodi:nodetypes="cszcsccsccscscscsscc" />
  </g>
</svg>
